# xmcd
#
# Track frame offsets: 
#        150
#        6943
#        28890
#        48993
#        69568
#        93943
#        117700
#        142433
#        162775
#        180010
#        196133
#        211333
#
# Disc length: 3177 seconds
#
# Revision: 5
# Processed by: cddbd v1.5.2PL0 Copyright (c) Steve Scherf et al.
# Submitted via: ExactAudioCopy v0.95a4
#
DISCID=a70c670c
DTITLE=Cowboy Junkies - The Trinity Session
DYEAR=1988
DGENRE=Folk
TTITLE0=Mining For Gold
TTITLE1=Misguided Angel
TTITLE2=Blue Moon Revisited (Song for Elvis)
TTITLE3=I Don't Get It
TTITLE4=I'm So Lonesome I Could Cry
TTITLE5=To Love Is to Bury
TTITLE6=200 More Miles
TTITLE7=Dreaming My Dreams With You
TTITLE8=Working On A Building
TTITLE9=Sweet Jane
TTITLE10=Postcard Blues
TTITLE11=Walking After Midnight
EXTD=ID3G:   0
EXTT0=
EXTT1=
EXTT2=
EXTT3=
EXTT4=
EXTT5=
EXTT6=
EXTT7=
EXTT8=
EXTT9=
EXTT10=
EXTT11=
PLAYORDER=
